<?xml version="1.0" encoding="UTF-8"?>
<svg id="Layer_2" data-name="Layer 2" xmlns="http://www.w3.org/2000/svg" viewBox="0 0 482.28 113.93">
  <defs>
    <style>
      .cls-1 {
        fill: #1e2f60;
      }

      .cls-1, .cls-2, .cls-3, .cls-4, .cls-5, .cls-6, .cls-7, .cls-8, .cls-9 {
        stroke-width: 0px;
      }

      .cls-2 {
        fill: #e0e0e0;
      }

      .cls-3 {
        opacity: .2;
      }

      .cls-4 {
        fill: #fff;
      }

      .cls-5 {
        fill: #fd191a;
      }

      .cls-6 {
        fill: #ededed;
      }

      .cls-7 {
        fill: #253563;
      }

      .cls-8 {
        fill: #192851;
      }

      .cls-9 {
        fill: #061342;
      }
    </style>
  </defs>
  <g id="Layer_3" data-name="Layer 3">
    <g>
      <path class="cls-4" d="M134.48,93.42c-1.51-2.83-36.67-68.58-41.95-77.44-1.79-9.28-10.26-15.98-20.28-15.98-11.38,0-20.63,8.75-20.63,19.45,0,.02-.01.33-.05.84-.06.87-.2,2.29-.48,4.09l-.18,1.06-.05.27c-.05.28-.1.56-.16.86l-.05.23c-.06.31-.13.63-.23,1.05-.09.38-.18.76-.27,1.15-.05.22-.34,1.3-.34,1.3l-.39,1.35-.44,1.38c-1.72,5.14-.63,14.15.78,21.09-3.92-3.21-10.04-6.34-18.98-6.34-.21,0-.41,0-.62,0-18.14.29-27.84,10.36-28.25,10.79l-1.9,2.02,2.52,1.17c.22.1,22.5,10.55,36.83,25.38,3.97,4.11,6.98,8.18,8.95,12.1,6.09,12.13,14.09,14.68,19.73,14.68,6.16,0,10.79-2.98,11.05-3.14.32-.23,7.56-5.51,5.55-21.4,5.55-1.25,10.21-9.75,10.28-19.25v-.08s0-.07,0-.07c0-.33,0-.67-.03-1,0-.09-.08-.99-.09-1.12l-.08-.57c-.02-.18-.05-.36-.08-.54-.02-.12-.17-.96-.21-1.12-.03-.14-.22-.96-.25-1.1-.04-.15-.3-1.1-.3-1.1-.03-.11-.06-.22-.1-.32,31.23,32.7,36.64,33.09,38.54,33.23.12,0,.25.02.36.02h.1s3.19-.18,3.19-.18l-1.48-2.77Z"/>
      <g>
        <path class="cls-6" d="M77.28,82.94l-23.51-21.11s-6.08-12.32-23.59-12.04c-17.51.28-26.82,10.16-26.82,10.16,0,0,22.66,10.52,37.43,25.8,20.62,2.07,26.82,17.06,32.55,16.69,5.32-.34,4.47-14.17,3.95-19.51Z"/>
        <path class="cls-2" d="M77.92,109.15s7.25-5.08,4.39-21.71l-5.03-4.51c.52,5.34,1.37,19.17-3.95,19.51-5.73.37-11.93-14.62-32.55-16.69,3.79,3.92,7.06,8.15,9.29,12.6,10.95,21.81,27.84,10.8,27.84,10.8Z"/>
        <path class="cls-8" d="M92.9,70.08c-.05,10.43-5.93,18.53-10.59,17.37-18.63-3.97-26.31-20.86-27.9-23.98-1.59-3.13-6.14-22.08-3.54-29.81,2.59-7.73,2.75-14.15,2.75-14.15,0-9.67,8.34-17.51,18.63-17.51s18.64,7.84,18.64,17.51-8.07,17.24-18.14,17.49l9.43,8.62s10.77,14.03,10.72,24.46Z"/>
        <path class="cls-9" d="M87.66,54.13c-2.72-4.91-5.49-8.51-5.49-8.51l-9.43-8.62c10.07-.25,18.14-7.98,18.14-17.49S82.55,2,72.25,2s-18.63,7.84-18.63,17.51c0,0-.16,6.42-2.75,14.15,0,0,0,0,0,0,8.74,8.19,21.54,15.45,36.8,20.47Z"/>
        <path class="cls-1" d="M90.89,19.51c0-9.67-8.34-17.51-18.64-17.51s-18.63,7.84-18.63,17.51c0,0-.16,6.42-2.75,14.16h0s.05.04.07.07c4.6,4.3,10.7,6.61,16.99,6.67,2.64.02,5.46,0,8.4-.13l-3.58-3.27c10.07-.25,18.14-7.98,18.14-17.49Z"/>
        <circle class="cls-4" cx="71.83" cy="16.75" r="2.75"/>
        <path class="cls-5" d="M92.9,70.08c0-.5-.03-1.01-.07-1.52-1.03-.09-14.28-1.58-30.95-19.34,0,0-5.44,4.66-4.02,11.01l-4.08,1.59c.24.72.46,1.28.64,1.64,1.59,3.12,9.26,20.01,27.9,23.98,4.66,1.16,10.54-6.94,10.59-17.36Z"/>
        <path class="cls-7" d="M132.71,94.37S90.99,16.31,90.18,16.05c-.81-.26-6.49-1.91-6.49-1.91,0,0-4.06-.51-5.76,2.4l54.5,77.81c.1,0,.2.02.29.01Z"/>
        <path class="cls-8" d="M77.92,16.54c-.17.3-.33.62-.45.99-1.41,3.04-5.58,7.34-5.58,7.34,0,0-2.61,3.95-.35,11.22,0,0,51.07,57.54,60.88,58.26L77.92,16.54Z"/>
        <path class="cls-3" d="M87.66,54.13s2.09,22.62-2.14,27.14c-3.01,3.21-9.28,3.07-12.64,2.72,2.77,1.49,5.9,2.71,9.43,3.46,4.66,1.16,10.54-6.94,10.59-17.37.02-5.15-2.58-11.16-5.23-15.95h0Z"/>
      </g>
      <g>
        <g>
          <path class="cls-4" d="M195.81,33.11v8.2h-20.73v40.02h-9.78v-40.02h-20.73v-8.2h51.25Z"/>
          <path class="cls-4" d="M201.39,33.11h9.78v28.86c0,7.71,6.61,11.64,13.16,11.64s13.22-3.86,13.22-11.64v-28.86h9.71v28.86c0,14.05-11.43,21.08-22.94,21.08s-22.94-7.03-22.94-21.08v-28.86Z"/>
          <path class="cls-4" d="M257.11,33.11h9.78v48.21h-9.78v-48.21Z"/>
          <path class="cls-4" d="M276.74,33.11h9.78v28.86c0,7.71,6.61,11.64,13.16,11.64s13.22-3.86,13.22-11.64v-28.86h9.71v28.86c0,14.05-11.43,21.08-22.94,21.08s-22.94-7.03-22.94-21.08v-28.86Z"/>
          <path class="cls-4" d="M332.47,33.11h9.78v48.21h-9.78v-48.21Z"/>
          <path class="cls-4" d="M352.1,33.11h9.78v28.86c0,7.71,6.54,11.64,13.16,11.64s13.22-3.86,13.22-11.64v-28.86h9.71v28.86c0,14.05-11.5,21.08-22.94,21.08s-22.94-7.03-22.94-21.08v-28.86ZM377.38,19.41l3.03,3.51-8.95,6.41-1.79-2,7.71-7.92Z"/>
        </g>
        <g>
          <path class="cls-4" d="M416.78,33.11h9.78v28.86c0,7.71,6.61,11.64,13.16,11.64s13.22-3.86,13.22-11.64v-28.86h9.71v28.86c0,14.05-11.43,21.08-22.94,21.08s-22.94-7.03-22.94-21.08v-28.86Z"/>
          <path class="cls-4" d="M472.5,33.11h9.78v48.21h-9.78v-48.21Z"/>
        </g>
      </g>
    </g>
  </g>
</svg>